<?xml version='1.0' encoding='UTF-8'?>
<svg viewBox="0 0 32 32" xmlns="http://www.w3.org/2000/svg" xmlns:xlink="http://www.w3.org/1999/xlink">
  <g transform="translate(4, 4.0003)">
    <g transform="matrix(0.8571, 0, 0, 0.8571, 0, 0)">
      <g id="Layer_1" transform="translate(-4.6668, -4.6691)">
        <g transform="matrix(1.1667, 0, 0, 1.1667, 0, 0)">
          <g id="Sales">
            <circle cx="23" cy="25" r="3" fill="#FFFFFF" class="White" />
          </g>
        </g>
      </g>
    </g>
  </g>
  <g transform="translate(4, 4.0003)">
    <g transform="matrix(0.8571, 0, 0, 0.8571, 0, 0)">
      <g id="Layer_1" transform="translate(-4.6668, -4.6691)">
        <g transform="matrix(1.1667, 0, 0, 1.1667, 0, 0)">
          <g id="Sales">
            <polygon points="10,18 10,10 10,8 4,8 4,10 8,10 8,20 28,20 28,18  " fill="#FFFFFF" class="White" />
          </g>
        </g>
      </g>
    </g>
  </g>
  <g transform="translate(4, 4.0003)">
    <g transform="matrix(0.8571, 0, 0, 0.8571, 0, 0)">
      <g id="Layer_1" transform="translate(-4.6668, -4.6691)">
        <g transform="matrix(1.1667, 0, 0, 1.1667, 0, 0)">
          <g id="Sales">
            <path d="M13, 16L25, 16C25.6, 16 26, 15.5 26, 15L26, 5C26, 4.5 25.6, 4 25, 4L13, 4C12.4, 4 12, 4.5 12, 5L12, 15C12, 15.5 12.4, 16 13, 16zM20, 6L24, 6L24, 10L20, 10L20, 6z" fill="#FFFFFF" class="White" />
          </g>
        </g>
      </g>
    </g>
  </g>
  <g transform="translate(4, 4.0003)">
    <g transform="matrix(0.8571, 0, 0, 0.8571, 0, 0)">
      <g id="Layer_1" transform="translate(-4.6668, -4.6691)">
        <g transform="matrix(1.1667, 0, 0, 1.1667, 0, 0)">
          <g id="Sales">
            <circle cx="13" cy="25" r="3" fill="#FFFFFF" class="White" />
          </g>
        </g>
      </g>
    </g>
  </g>
  <g id="Layer_1" transform="translate(0, 0)">
    <g id="Delete_1_">
      <path d="M10.8, 8L15.7, 3.1C16.1, 2.7 16.1, 2.1 15.7, 1.7L14.3, 0.3C13.9, -0.1 13.3, -0.1 12.9, 0.3L8, 5.2L3.1, 0.3C2.7, -0.1 2.1, -0.1 1.7, 0.3L0.3, 1.7C-0.1, 2.1 -0.1, 2.7 0.3, 3.1L5.2, 8L0.3, 12.9C-0.1, 13.3 -0.1, 13.9 0.3, 14.3L1.7, 15.7C2.1, 16.1 2.7, 16.1 3.1, 15.7L8, 10.8L12.9, 15.7C13.3, 16.1 13.9, 16.1 14.3, 15.7L15.7, 14.3C16.1, 13.9 16.1, 13.3 15.7, 12.9L10.8, 8z" fill="#D11C1C" class="Red" />
    </g>
  </g>
</svg>