<?xml version='1.0' encoding='UTF-8'?>
<svg x="0px" y="0px" viewBox="0 0 32 32" version="1.1" xmlns="http://www.w3.org/2000/svg" xmlns:xlink="http://www.w3.org/1999/xlink" enable-background="new 0 0 32 32" xml:space="preserve" id="Layer_1">
  <style type="text/css">
	.Black{fill:#727272;}
	.Blue{fill:#1177D7;}
	.Green{fill:#039C23;}
	.Yellow{fill:#FFB115;}
	.Red{fill:#D11C1C;}
	.White{fill:#FFFFFF;}
	.st0{opacity:0.5;}
	.st1{opacity:0.75;}
	.st2{display:none;}
	.st3{display:inline;fill:#1177D7;}
	.st4{display:inline;fill:#727272;}
</style>
  <g id="FitBoundsToContainer">
    <path d="M31,0H1C0.5,0,0,0.5,0,1v30c0,0.5,0.5,1,1,1h30c0.5,0,1-0.5,1-1V1C32,0.5,31.5,0,31,0z M30,30H2V2h28V30z    M28,16l-4,4v-8L28,16z M20,8l-4-4l-4,4H20z M12,24l4,4l4-4H12z M8,12l-4,4l4,4V12z" fill="#727272" class="Black" />
    <path d="M10,10v12h12V10H10z" fill="#1177D7" class="Blue" />
  </g>
</svg>