<?xml version='1.0' encoding='UTF-8'?>
<svg viewBox="1 1.5 32 32" xmlns="http://www.w3.org/2000/svg" xmlns:xlink="http://www.w3.org/1999/xlink">
  <g transform="translate(26.9974, 3.5001)">
    <g transform="matrix(-1, 0, 0, 1, 6, 0)">
      <g transform="matrix(1.0014, 0, 0, 1.0014, 0, 0)">
        <g transform="translate(0, -0.0003)">
          <g transform="matrix(0.8751, 0, 0, 0.8751, 0, 0)">
            <g transform="translate(0.0025, 0.0028)">
              <g transform="matrix(1.1412, 0, 0, 1.1412, 0, 0)">
                <g transform="translate(-0.0025, -0.0024)">
                  <g transform="matrix(1.0013, 0, 0, 1.0013, 0, 0)">
                    <g transform="translate(0, 0)">
                      <g transform="matrix(0.9986, 0, 0, 0.9986, 0, 0)">
                        <g id="Layer_1" transform="translate(-2, -2)">
                          <g id="ShoppingCart">
                            <circle cx="13" cy="27" r="3" fill="#FFFFFF" class="White" />
                          </g>
                        </g>
                      </g>
                    </g>
                  </g>
                </g>
              </g>
            </g>
          </g>
        </g>
      </g>
    </g>
  </g>
  <g transform="translate(4.9574, 3.5001)">
    <g transform="matrix(-1, 0, 0, 1, 28.04, 0)">
      <g transform="matrix(1.0014, 0, 0, 1.0014, 0, 0)">
        <g transform="translate(0, -0.0003)">
          <g transform="matrix(0.8751, 0, 0, 0.8751, 0, 0)">
            <g transform="translate(0.0025, 0.0028)">
              <g transform="matrix(1.1412, 0, 0, 1.1412, 0, 0)">
                <g transform="translate(-0.0025, -0.0024)">
                  <g transform="matrix(1.0013, 0, 0, 1.0013, 0, 0)">
                    <g transform="translate(0, 0)">
                      <g transform="matrix(0.9986, 0, 0, 0.9986, 0, 0)">
                        <g id="Layer_1" transform="translate(-2, -2)">
                          <g id="ShoppingCart">
                            <path d="M16.3, 18L24.2, 18C24.6, 18 24.9, 17.8 25.1, 17.5L29.9, 9.5C30.3, 8.8 29.8, 8 29, 8L10.4, 8L6.8, 2L6.8, 2L2, 2L2, 4L5.7, 4L13.5, 17.2L10.6, 20L10.2, 20.4C9.7, 21 10.1, 22 11, 22L11.5, 22L28, 22L28, 20L13.5, 20L15.5, 18L16.3, 18z" fill="#FFFFFF" class="White" />
                          </g>
                        </g>
                      </g>
                    </g>
                  </g>
                </g>
              </g>
            </g>
          </g>
        </g>
      </g>
    </g>
  </g>
  <g transform="translate(26.9974, 3.5001)">
    <g transform="matrix(-1, 0, 0, 1, 6, 0)">
      <g transform="matrix(1.0014, 0, 0, 1.0014, 0, 0)">
        <g transform="translate(0, -0.0003)">
          <g transform="matrix(0.8751, 0, 0, 0.8751, 0, 0)">
            <g transform="translate(0.0025, 0.0028)">
              <g transform="matrix(1.1412, 0, 0, 1.1412, 0, 0)">
                <g transform="translate(-0.0025, -0.0024)">
                  <g transform="matrix(1.0013, 0, 0, 1.0013, 0, 0)">
                    <g transform="translate(0, 0)">
                      <g transform="matrix(0.9986, 0, 0, 0.9986, 0, 0)">
                        <g id="Layer_1" transform="translate(-2, -2)">
                          <g id="ShoppingCart">
                            <circle cx="25" cy="27" r="3" fill="Transparent" class="Transparent" />
                          </g>
                        </g>
                      </g>
                    </g>
                  </g>
                </g>
              </g>
            </g>
          </g>
        </g>
      </g>
    </g>
  </g>
  <g id="Layer_1" transform="translate(3, 19.5)">
    <g transform="matrix(0.5, 0, 0, 0.5, 0, 0)">
      <g id="DollarCircled">
        <path d="M13.9, 10C14, 10 14, 10 13.9, 10L14, 13.4C13.8, 13.3 13.7, 13.3 13.6, 13.2C13.2, 13 12.9, 12.8 12.7, 12.6C12.5, 12.3 12.3, 12 12.3, 11.7C12.3, 11.4 12.4, 11.1 12.5, 10.9C12.7, 10.7 12.8, 10.5 13.1, 10.4C13.4, 10.2 13.6, 10.1 13.9, 10zM17.4, 16.8C17, 16.5 16.6, 16.3 16, 16.1L16, 20C16, 20 16, 20 16.1, 20C16.4, 19.9 16.7, 19.9 17, 19.7C17.3, 19.5 17.5, 19.4 17.7, 19.1C17.9, 18.8 18, 18.5 18, 18.1C17.9, 17.5 17.8, 17.1 17.4, 16.8zM28, 15C28, 22.2 22.2, 28 15, 28C7.8, 28 2, 22.2 2, 15C2, 7.8 7.8, 2 15, 2C22.2, 2 28, 7.8 28, 15zM20, 17.8C20, 17.2 19.9, 16.6 19.7, 16.2C19.5, 15.8 19.2, 15.4 18.8, 15.1C18.4, 14.8 18, 14.6 17.6, 14.4C17.1, 14.2 16.7, 14.1 16.2, 14C16.1, 14 16.1, 14 16, 14L16, 10.2C16.2, 10.3 16.4, 10.4 16.6, 10.5C16.9, 10.7 17.1, 10.9 17.2, 11.2C17.3, 11.4 17.4, 11.7 17.5, 12.1L19.4, 12.1C19.3, 11.4 19.2, 10.8 19, 10.3C18.7, 9.8 18.4, 9.3 18, 9C17.6, 8.7 17.1, 8.5 16.5, 8.3C16.3, 8.3 16.2, 8.2 16, 8.2L16, 6L14, 6L14, 8C13.7, 8 13.4, 8.1 13.1, 8.2C12.6, 8.3 12.1, 8.6 11.7, 8.9C11.3, 9.2 10.9, 9.6 10.7, 10.1C10.4, 10.6 10.3, 11.2 10.3, 11.8C10.3, 12.7 10.5, 13.3 10.9, 13.8C11.3, 14.3 11.8, 14.7 12.3, 14.9C12.8, 15.2 13.4, 15.4 14.1, 15.5L14.1, 20C14.1, 20 14.1, 20 14.1, 20C13.7, 19.9 13.4, 19.8 13.1, 19.6C12.8, 19.4 12.6, 19.1 12.4, 18.8C12.1, 18.5 12, 18.3 12, 18L10.1, 18C10.2, 18.6 10.3, 19.2 10.5, 19.6C10.8, 20.2 11.1, 20.6 11.6, 21C12.1, 21.4 12.6, 21.6 13.2, 21.8C13.5, 21.9 13.8, 21.9 14.1, 22L14.1, 24L16.1, 24L16.1, 22C16.4, 22 16.6, 21.9 16.9, 21.9C17.5, 21.8 18, 21.5 18.5, 21.2C19, 20.9 19.4, 20.4 19.7, 19.9C19.9, 19.3 20, 18.6 20, 17.8z" fill="#FFFFFF" class="White" />
      </g>
    </g>
  </g>
  <g id="Layer_1" transform="translate(-1, -2.5)">
    <g transform="matrix(0.5, 0, 0, 0.5, 0, 0)">
      <g id="Check">
        <polygon points="27,5 11,21 5,15 2,18 11,27 30,8  " fill="#FFB115" class="Yellow" />
      </g>
    </g>
  </g>
</svg>