<?xml version='1.0' encoding='UTF-8'?>
<svg viewBox="1 1.5 32 32" xmlns="http://www.w3.org/2000/svg" xmlns:xlink="http://www.w3.org/1999/xlink">
  <g transform="translate(5, 4.3761)">
    <g transform="translate(0, 0)">
      <g transform="matrix(0.875, 0, 0, 0.875, 0, 0)">
        <g transform="translate(0, -0.0015)">
          <g transform="matrix(1.1429, 0, 0, 1.1429, 0, 0)">
            <g id="Layer_1" transform="translate(0, -1.75)">
              <g transform="matrix(0.875, 0, 0, 0.875, 0, 0)">
                <g id="Sale">
                  <path d="M4, 18L4, 8L0, 8L0, 6L6, 6L6, 16L14.5, 16C14, 16.6 13.6, 17.3 13.2, 18L4, 18zM9, 20C7.3, 20 6, 21.3 6, 23C6, 24.7 7.3, 26 9, 26C10.7, 26 12, 24.7 12, 23C12, 21.3 10.7, 20 9, 20z" fill="#FFFFFF" class="White" />
                </g>
              </g>
            </g>
          </g>
        </g>
      </g>
    </g>
  </g>
  <g transform="translate(5, 4.3761)">
    <g transform="translate(0, 0)">
      <g transform="matrix(0.875, 0, 0, 0.875, 0, 0)">
        <g transform="translate(0, -0.0015)">
          <g transform="matrix(1.1429, 0, 0, 1.1429, 0, 0)">
            <g id="Layer_1" transform="translate(0, -1.75)">
              <g transform="matrix(0.875, 0, 0, 0.875, 0, 0)">
                <g id="Sale">
                  <path d="M23, 14C18, 14 14, 18 14, 23C14, 28 18, 32 23, 32C28, 32 32, 28 32, 23C32, 18 28, 14 23, 14zM23, 22C24.7, 22 26, 23.3 26, 25C26, 26.3 25.2, 27.4 24, 27.8L24, 29L22, 29L22, 27.8C20.8, 27.4 20, 26.3 20, 25L22, 25C22, 25.6 22.4, 26 23, 26C23.6, 26 24, 25.6 24, 25C24, 24.4 23.6, 24 23, 24C21.3, 24 20, 22.7 20, 21C20, 19.7 20.8, 18.6 22, 18.2L22, 17L24, 17L24, 18.2C25.2, 18.6 26, 19.7 26, 21L24, 21C24, 20.4 23.6, 20 23, 20C22.4, 20 22, 20.4 22, 21C22, 21.6 22.4, 22 23, 22z" fill="#FFFFFF" class="White" />
                </g>
              </g>
            </g>
          </g>
        </g>
      </g>
    </g>
  </g>
  <g transform="translate(5, 4.3761)">
    <g transform="translate(0, 0)">
      <g transform="matrix(0.875, 0, 0, 0.875, 0, 0)">
        <g transform="translate(0, -0.0015)">
          <g transform="matrix(1.1429, 0, 0, 1.1429, 0, 0)">
            <g id="Layer_1" transform="translate(0, -1.75)">
              <g transform="matrix(0.875, 0, 0, 0.875, 0, 0)">
                <g id="Sale">
                  <path d="M23, 12C23.3, 12 23.7, 12 24, 12.1L24, 3C24, 2.5 23.6, 2 23, 2L9, 2C8.4, 2 8, 2.5 8, 3L8, 13C8, 13.5 8.4, 14 9, 14L16.7, 14C18.5, 12.7 20.6, 12 23, 12z" fill="#FFFFFF" class="White" />
                </g>
              </g>
            </g>
          </g>
        </g>
      </g>
    </g>
  </g>
  <g id="Layer_1" transform="translate(-1, -2.5)">
    <g transform="matrix(0.5, 0, 0, 0.5, 0, 0)">
      <g id="Check">
        <polygon points="27,5 11,21 5,15 2,18 11,27 30,8  " fill="#FFB115" class="Yellow" />
      </g>
    </g>
  </g>
</svg>