<?xml version='1.0' encoding='UTF-8'?>
<svg viewBox="-1 -1 31.9975 32" xmlns="http://www.w3.org/2000/svg" xmlns:xlink="http://www.w3.org/1999/xlink">
  <g id="Layer_1" transform="translate(-3, -3)">
    <g transform="matrix(0.5, 0, 0, 0.5, 0, 0)">
      <g id="Delete">
        <g>
          <path d="M18.8, 16L25.7, 9.1C26.1, 8.7 26.1, 8.1 25.7, 7.7L24.3, 6.3C23.9, 5.9 23.3, 5.9 22.9, 6.3L16, 13.2L9.1, 6.3C8.7, 5.9 8.1, 5.9 7.7, 6.3L6.3, 7.7C5.9, 8.1 5.9, 8.7 6.3, 9.1L13.2, 16L6.3, 22.9C5.9, 23.3 5.9, 23.9 6.3, 24.3L7.7, 25.7C8.1, 26.1 8.7, 26.1 9.1, 25.7L16, 18.8L22.9, 25.7C23.3, 26.1 23.9, 26.1 24.3, 25.7L25.7, 24.3C26.1, 23.9 26.1, 23.3 25.7, 22.9L18.8, 16z" fill="#1177D7" class="Blue" />
        </g>
      </g>
    </g>
  </g>
  <g id="Layer_1" transform="translate(-3, -3)">
    <g transform="matrix(0.5, 0, 0, 0.5, 0, 0)">
      <g id="Delete">
        <g>
          <path d="M18.8, 16L25.7, 9.1C26.1, 8.7 26.1, 8.1 25.7, 7.7L24.3, 6.3C23.9, 5.9 23.3, 5.9 22.9, 6.3L16, 13.2L9.1, 6.3C8.7, 5.9 8.1, 5.9 7.7, 6.3L6.3, 7.7C5.9, 8.1 5.9, 8.7 6.3, 9.1L13.2, 16L6.3, 22.9C5.9, 23.3 5.9, 23.9 6.3, 24.3L7.7, 25.7C8.1, 26.1 8.7, 26.1 9.1, 25.7L16, 18.8L22.9, 25.7C23.3, 26.1 23.9, 26.1 24.3, 25.7L25.7, 24.3C26.1, 23.9 26.1, 23.3 25.7, 22.9L18.8, 16z" fill="#D11C1C" class="Red" />
        </g>
      </g>
    </g>
  </g>
  <g transform="translate(18.3075, 1.8761)">
    <g transform="matrix(-1, 0, 0, 1, 12.69, 0)">
      <g transform="translate(0, 0)">
        <g transform="matrix(0.875, 0, 0, 0.875, 0, 0)">
          <g transform="translate(0, -0.0015)">
            <g transform="matrix(1.1429, 0, 0, 1.1429, 0, 0)">
              <g id="Layer_1" transform="translate(0, -1.75)">
                <g transform="matrix(0.875, 0, 0, 0.875, 0, 0)">
                  <g id="Sale">
                    <path d="M4, 18L4, 8L0, 8L0, 6L6, 6L6, 16L14.5, 16C14, 16.6 13.6, 17.3 13.2, 18L4, 18zM9, 20C7.3, 20 6, 21.3 6, 23C6, 24.7 7.3, 26 9, 26C10.7, 26 12, 24.7 12, 23C12, 21.3 10.7, 20 9, 20z" fill="#FFFFFF" class="White" />
                  </g>
                </g>
              </g>
            </g>
          </g>
        </g>
      </g>
    </g>
  </g>
  <g transform="translate(15.2475, 1.8761)">
    <g transform="matrix(-1, 0, 0, 1, 15.75, 0)">
      <g transform="translate(0, 0)">
        <g transform="matrix(0.875, 0, 0, 0.875, 0, 0)">
          <g transform="translate(0, -0.0015)">
            <g transform="matrix(1.1429, 0, 0, 1.1429, 0, 0)">
              <g id="Layer_1" transform="translate(0, -1.75)">
                <g transform="matrix(0.875, 0, 0, 0.875, 0, 0)">
                  <g id="Sale">
                    <path d="M23, 14C18, 14 14, 18 14, 23C14, 28 18, 32 23, 32C28, 32 32, 28 32, 23C32, 18 28, 14 23, 14zM23, 22C24.7, 22 26, 23.3 26, 25C26, 26.3 25.2, 27.4 24, 27.8L24, 29L22, 29L22, 27.8C20.8, 27.4 20, 26.3 20, 25L22, 25C22, 25.6 22.4, 26 23, 26C23.6, 26 24, 25.6 24, 25C24, 24.4 23.6, 24 23, 24C21.3, 24 20, 22.7 20, 21C20, 19.7 20.8, 18.6 22, 18.2L22, 17L24, 17L24, 18.2C25.2, 18.6 26, 19.7 26, 21L24, 21C24, 20.4 23.6, 20 23, 20C22.4, 20 22, 20.4 22, 21C22, 21.6 22.4, 22 23, 22z" fill="#FFFFFF" class="White" />
                  </g>
                </g>
              </g>
            </g>
          </g>
        </g>
      </g>
    </g>
  </g>
  <g transform="translate(16.9975, 1.8761)">
    <g transform="matrix(-1, 0, 0, 1, 14, 0)">
      <g transform="translate(0, 0)">
        <g transform="matrix(0.875, 0, 0, 0.875, 0, 0)">
          <g transform="translate(0, -0.0015)">
            <g transform="matrix(1.1429, 0, 0, 1.1429, 0, 0)">
              <g id="Layer_1" transform="translate(0, -1.75)">
                <g transform="matrix(0.875, 0, 0, 0.875, 0, 0)">
                  <g id="Sale">
                    <path d="M23, 12C23.3, 12 23.7, 12 24, 12.1L24, 3C24, 2.5 23.6, 2 23, 2L9, 2C8.4, 2 8, 2.5 8, 3L8, 13C8, 13.5 8.4, 14 9, 14L16.7, 14C18.5, 12.7 20.6, 12 23, 12z" fill="#FFFFFF" class="White" />
                  </g>
                </g>
              </g>
            </g>
          </g>
        </g>
      </g>
    </g>
  </g>
</svg>