<?xml version='1.0' encoding='UTF-8'?>
<svg viewBox="0 0 32 32" xmlns="http://www.w3.org/2000/svg" xmlns:xlink="http://www.w3.org/1999/xlink">
  <g id="Слой_1" transform="translate(-2, 2)">
    <path d="M6, 30L6, 26L8, 26L8, 28L28, 28L28, 10L22, 10L22, 4L8, 4L8, 10L6, 10L6, 2L24, 2L24, 8L30, 8L30, 28L30, 30L6, 30z" fill="#727272" class="Black" />
  </g>
  <g id="Слой_1" transform="translate(-2, 2)">
    <path d="M22, 16L22, 20L8, 20L8, 24L2, 18L8, 12L8, 16L22, 16z" fill="#039C23" class="Green" />
  </g>
  <g id="Layer_1" transform="translate(16, 0)">
    <g id="DeleteCircled_1_">
      <circle cx="8" cy="8" r="8" fill="#D11C1C" class="Red" />
    </g>
  </g>
  <g id="Layer_1" transform="translate(16, 0)">
    <g id="DeleteCircled_1_">
      <polygon points="12.2,5.2 10.8,3.8 8,6.6 5.2,3.8 3.8,5.2 6.6,8 3.8,10.8 5.2,12.2 8,9.4 10.8,12.2 12.2,10.8 9.4,8     " fill="#FFFFFF" class="White" />
    </g>
  </g>
</svg>